<svg xmlns="http://www.w3.org/2000/svg" width="1024" height="1024">
<path fill="#ffffffff" d="M60 36c7.42 1.188 14.482 2.86 21.625 5.188l2.89.936C112.41 51.32 138.952 65.414 161 85l2.594 2.3a797 797 0 0 1 5.07 4.583 311 311 0 0 0 6.399 5.617c7.22 6.303 13.72 13.22 19.937 20.5q1.32 1.509 2.645 3.016c34.114 39.039 60.873 84.063 86.574 128.879q2.434 4.242 4.875 8.48c11.564 20.121 22.77 40.44 33.793 60.863 3.02 5.597 6.064 11.18 9.113 16.762 9.45 17.311 18.83 34.657 28.096 52.067a2512 2512 0 0 0 14.396 26.668c4.377 7.997 8.679 16.033 12.975 24.074q6.262 11.726 12.658 23.378c4.808 8.765 9.432 17.616 14.02 26.497 4.003 7.73 8.138 15.377 12.333 23.003 4.366 7.964 8.546 16.018 12.71 24.089a800 800 0 0 0 12.474 23.121l1.291 2.314 1.13 2.01c2.068 4.012 2.198 7.323 1.917 11.779-1.146 3.118-1.146 3.118-2.738 6.23l-1.737 3.432-1.837 3.525-1.803 3.561c-4.789 9.369-4.789 9.369-7.885 13.252-3.842-1.28-4.076-2.453-5.934-5.977l-1.695-3.18-1.808-3.468-1.909-3.606q-1.94-3.667-3.861-7.342-2.276-4.35-4.574-8.689c-8.08-15.33-15.907-30.794-23.771-46.235-4.924-9.66-9.891-19.295-14.957-28.882a1746 1746 0 0 1-8.991-17.28c-10.121-19.686-20.513-39.214-31.468-58.45-4.05-7.119-8.009-14.284-11.947-21.465-5.854-10.671-11.833-21.253-18.004-31.746a1183 1183 0 0 1-11.644-20.305c-5.812-10.335-11.794-20.562-17.868-30.745q-2.267-3.803-4.526-7.61c-6.023-10.118-12.213-20.123-18.474-30.095-4.956-7.907-9.78-15.885-14.561-23.898-3.776-6.325-7.611-12.614-11.45-18.9a2344 2344 0 0 1-9.663-15.967C205.923 192.887 187.502 165.84 167 140l-1.688-2.134C151.954 121.029 137.464 104.875 121 91q-1.606-1.383-3.21-2.77c-5.357-4.622-10.73-9.212-16.228-13.668-10.026-8.165-19.726-16.686-29.187-25.5l-2.009-1.861C66.605 43.666 63.218 40.038 60 36M317 63c2 1 2 1 3.154 4.186q.65 2.155 1.28 4.318l.707 2.355q.758 2.526 1.508 5.053c1.334 4.484 2.699 8.958 4.066 13.432l.838 2.745c10.648 34.715 24.375 68.044 39.288 101.116 1.84 4.081 3.668 8.168 5.493 12.256a2932 2932 0 0 0 27.914 60.707 1515 1515 0 0 1 7.377 15.864c5.553 12.064 11.276 24.038 17.102 35.972l1.277 2.619c11.053 22.644 22.322 45.181 33.6 67.714q3.551 7.096 7.096 14.194 4.38 8.767 8.764 17.532l3.275 6.55c6.254 12.52 12.605 24.979 19.173 37.337 1.46 2.75 2.91 5.506 4.36 8.262a4230 4230 0 0 0 5.04 9.538l1.085 2.048c5.342 10.074 10.811 20.06 16.493 29.947A908 908 0 0 1 530 524l1.24 2.113c2.716 4.897 3.426 8.281 2.76 13.887-1.434 3.352-1.434 3.352-3.437 6.625l-1.069 1.774A336 336 0 0 1 526 554l-1.262 2.002A829 829 0 0 1 517 568c-3.644-3.23-5.775-6.886-7.977-11.16l-1.11-2.113c-1.187-2.26-2.362-4.524-3.538-6.79q-1.23-2.35-2.462-4.7a4268 4268 0 0 1-4.803-9.192 1948 1948 0 0 0-6.18-11.746c-6.044-11.419-11.955-22.908-17.879-34.389a8722 8722 0 0 0-6.15-11.897c-9.815-18.952-19.445-37.991-28.952-57.1-2.983-5.993-5.98-11.98-8.976-17.967l-3.65-7.305q-5.116-10.23-10.242-20.453-3.257-6.497-6.51-12.995-2.394-4.78-4.79-9.557C395.686 334.503 387.716 318.32 380 302l-2.06-4.342A4079 4079 0 0 1 372.438 286l-.993-2.111c-13.851-29.467-27.452-59.038-40.548-88.848l-2.578-5.858c-7.86-17.885-15.398-35.896-22.848-53.955l-1.08-2.617-2.018-4.9c-1.593-3.897-1.593-3.897-3.373-7.711-8.167 1.004-15.563 12.443-20.437 18.625-4.745 6.104-9.201 12.416-13.592 18.778l-1.44 2.077-1.263 1.841c-1.3 1.721-2.709 3.192-4.268 4.679a204 204 0 0 1-11.437-17.25L245.49 147c-2.22-3.833-3.202-6.598-2.49-11 8.925-15.413 24.083-28.165 36.531-40.705q1.694-1.707 3.383-3.418a247 247 0 0 1 28.774-24.94l3.074-2.285zM969 47c1 2 1 2 .019 5.312a465 465 0 0 1-1.562 4.333l-.847 2.375q-.911 2.556-1.832 5.108c-1.643 4.566-3.255 9.143-4.868 13.72l-1.001 2.838c-27.384 77.832-45.415 158.566-47.355 243.73q-.085 3.893-.177 7.786-.192 8.274-.377 16.548l-.312 13.77c-.158 6.91-.34 13.82-.528 20.73-.122 4.65-.184 9.295-.2 13.947l-.085 5.881.045 2.498c-.154 6.642-3.295 9.92-7.92 14.424q-1.683 1.761-3.36 3.527a665 665 0 0 1-3.39 3.41l-1.844 1.842c-4.298 4.241-8.767 8.14-13.504 11.889-3.504 2.816-6.89 5.752-10.277 8.707a1226 1226 0 0 1-14.25 12.25l-1.594 1.347q-3.22 2.716-6.446 5.426-2.513 2.112-5.023 4.227l-1.624 1.367c-4.366 3.692-8.585 7.522-12.762 11.426C826 487 826 487 824 487l-.875 1.75C822 491 822 491 820.973 492.7c-1.314 3.106-1.393 6.005-1.66 9.363-.845 7.735-3.578 12.851-8.313 18.937l-2.062 2.758c-3.311 4.301-6.44 8.126-10.938 11.242-4.133.073-6.167-.28-9.312-3-4.098-7.284-4.214-16.074-4.813-24.25l-.246-3.35c-.222-3.132-.427-6.266-.629-9.4l-.167-2.308c-.692-10.139-.692-10.139 2.167-14.567 1.41-1.605 1.41-1.605 3-3.125l1.621-1.55c2.081-1.876 4.224-3.66 6.379-5.45a1732 1732 0 0 0 6.75-5.75l1.827-1.559c4.462-3.822 8.797-7.764 13.1-11.763 3.118-2.878 6.322-5.592 9.635-8.24 6.034-4.854 11.612-10.15 17.243-15.458 3.73-3.512 7.57-6.88 11.445-10.23 10.638-8.169 10.638-8.169 16.183-19.573l.082-3.31.102-3.766.098-4.12.113-4.263q.121-4.533.237-9.066c.202-7.84.429-15.68.658-23.52l.068-2.332c2.373-80.935 8.462-178.318 85.459-288.878A704 704 0 0 1 969 47M750 210l2 1c.594 2.81.594 2.81 1.07 6.578l.263 2.043c.939 7.452 1.719 14.922 2.462 22.396.181 1.751.386 3.5.595 5.248 1.761 15.322-3.14 24.74-11.715 37.28-1.846 2.706-3.584 5.464-5.301 8.254a587 587 0 0 1-3.538 5.654c-3.721 5.933-7.334 11.932-10.961 17.922-5.59 9.23-11.21 18.44-16.875 27.625-13.26 21.518-26.355 43.112-39 65l-5.312 9.188-1.302 2.251c-4.933 8.527-9.924 17.02-14.91 25.518a12744 12744 0 0 0-18.774 32.124 35020 35020 0 0 1-10.448 17.914q-4.408 7.558-8.824 15.11a3236 3236 0 0 0-17.826 30.828c-9.35 16.4-18.81 32.736-28.338 49.034-3.614 6.185-7.2 12.385-10.772 18.595a2766 2766 0 0 1-17.932 30.75c-.956 1.618-.956 1.618-1.933 3.267A2413 2413 0 0 1 527 653l-1.074 1.814c-1.084 1.83-2.178 3.655-3.274 5.479l-1.973 3.31L519 666h-2l-1.162-2.247a9748 9748 0 0 0-4.282-8.27q-1.38-2.665-2.76-5.333l-1.757-3.388-1.619-3.127c-1.428-2.749-1.428-2.749-3.42-5.635-1.792-10.525 7.362-21.574 12.5-30.25l3.719-6.328 1.902-3.229c2.975-5.055 5.926-10.125 8.879-15.193l3.496-5.992q3.521-6.038 7.04-12.078c11.64-19.988 23.432-39.885 35.244-59.772A25146 25146 0 0 0 590 479.5l3.91-6.598q3.18-5.363 6.355-10.73c9.867-16.674 19.81-33.296 29.887-49.844A2783 2783 0 0 0 641.4 393.66c4.744-7.921 9.548-15.805 14.348-23.692 4.157-6.834 8.29-13.68 12.314-20.593 4.071-6.99 8.309-13.87 12.563-20.75 7.205-11.66 14.228-23.418 21.187-35.225 2.632-4.464 5.277-8.92 7.926-13.373C730.875 245.564 730.875 245.564 750 210M731 82h1c3.212 13.617 6.22 27.234 8.375 41.063l.507 3.18c1.664 11.148 1.69 19.106-2.944 29.507l-1.413 3.253c-5.295 11.918-11.14 23.58-16.962 35.247l-1.453 2.912c-6.662 13.321-13.635 26.445-20.821 39.49a968 968 0 0 0-5.066 9.375l-1.594 2.98-1.567 2.93a1049 1049 0 0 1-13.437 24.313c-5.778 10.13-11.281 20.393-16.747 30.693l-3.026 5.702c-3.447 6.488-6.96 12.94-10.494 19.382a1336 1336 0 0 0-7.424 13.711c-7.607 14.237-15.7 28.14-23.985 41.99a1685 1685 0 0 0-8.886 15.147l-3.438 5.902-1.77 3.039c-14.03 24.078-28.23 48.047-42.77 71.822a999 999 0 0 0-8.558 14.245l-1.673 2.833a862 862 0 0 0-3.124 5.344l-1.402 2.374-1.222 2.095L540 512h-2q-2.973-5.654-5.937-11.312l-1.71-3.249-1.63-3.115-1.508-2.872c-2.21-4.458-3.13-8.537-2.215-13.452 1.82-3.889 4.176-7.376 6.563-10.937q2.082-3.221 4.16-6.446l2.16-3.325c3.306-5.142 6.474-10.362 9.617-15.604l1.867-3.113c5.885-9.884 11.462-19.932 17.008-30.009 3.365-6.114 6.799-12.187 10.25-18.253 4.951-8.719 9.754-17.51 14.503-26.34 3.676-6.818 7.464-13.562 11.31-20.286 5.387-9.44 10.434-19.033 15.397-28.703a797 797 0 0 1 11.29-21.171c4.671-8.47 9.077-17.048 13.34-25.73 2.947-5.983 6.01-11.894 9.131-17.787 5.136-9.728 10.112-19.532 15.04-29.366l1.32-2.631q3.463-6.903 6.919-13.808 2.794-5.58 5.598-11.157c9.248-18.385 18.447-36.778 26.945-55.525l.893-1.969c5.769-12.76 11.127-25.688 16.393-38.663C726.773 92.106 728.885 87.052 731 82"/>
<path fill="#ffffffff" d="M736 54c60.093 58.325 73.734 175.722 76 255 .079 6.4-.014 12.8-.108 19.199-.07 5.105-.105 10.21-.146 15.315-.054 6.434-.119 12.868-.22 19.302-.08 5.263-.127 10.526-.151 15.79q-.023 2.983-.085 5.967c-.754 12.047-.754 12.047 4.075 22.557 1.792 1.614 1.792 1.614 3.635 2.87l2.813 2.313L824 414c2 3 2 3 1.934 5.879-2.564 8.569-14.418 15.74-21.934 20.121-1.883.89-1.883.89-4 1-9.944-4.317-18.686-11.147-27-18l-2.145-1.652c-2.134-1.805-3.728-3.37-4.098-6.222l.054-2.13.06-2.425c.225-4.486.575-8.956.969-13.43l.262-3.107c.365-4.337.74-8.673 1.114-13.01 1.845-21.502 2.999-42.876 2.971-64.461l-.002-2.978c-.17-83.706-6.01-169.897-33.798-249.468l-.953-2.734-.842-2.363C736 57 736 57 736 54M82 74c5.213 1.512 8.43 4.836 12.25 8.5l2.02 1.92c40.916 39.221 51.872 88.027 53.273 143.03l.065 2.494c.45 17.613.552 35.22.521 52.837l-.01 7.56c-.014 11.9-.053 23.8-.106 35.7l-.026 5.998a9861 9861 0 0 1-.251 40.539q-.05 6.027-.082 12.055-.04 7.099-.117 14.198a885 885 0 0 0-.035 5.227c-.01 2.39-.037 4.78-.07 7.171l.005 2.089c-.146 7.573-2.818 12.622-8.25 17.87-8.905 8.504-8.905 8.504-13.558 9.132-3.467-.422-4.828-1.725-7.379-4.07l-2.36-2.11c-2.78-3.147-3.01-6.067-3.041-10.166l-.026-2.405-.012-2.618-.026-2.787q-.037-4.597-.066-9.195l-.055-6.489q-.058-6.901-.11-13.803c-.08-10.767-.179-21.533-.276-32.3l-.095-10.675c-.318-135.16-.318-135.16-31.187-265.905C82 75 82 75 82 74M162 744c10.192 45.044-32.025 113.825-54.508 149.487-4.455 6.986-9.012 13.905-13.725 20.72C90.945 918.339 88.82 922.334 87 927l1 1c9.822-.132 19.474-1.743 29.125-3.437l3.84-.659 3.793-.65 3.687-.626q3.486-.614 6.953-1.326c7.777-1.535 7.777-1.535 11.836-.388l2.516 1.711 2.938 1.96Q154.346 925.79 156 927l2.086 1.47a545 545 0 0 1 6.664 4.78l2.17 1.573 2.002 1.505 1.8 1.34C172 939 172 939 172 942c-35.353 10.896-71.177 16.22-108.125 16.188l-2.582.002c-12.859-.002-25.535-.458-38.293-2.19 1.43-4.375 3.796-7.371 6.813-10.75C46.62 925.88 61.284 904.632 75 883l1.15-1.806A431 431 0 0 0 83 870l1.322-2.218C103.974 834.64 119.07 799.454 124 761q.492-3.5 1-7c7.157-3.076 14.33-5.334 21.875-7.25l3.086-.812C154.15 744.857 157.645 744 162 744M814 740l1 1c-.13 8.34-1.42 16.46-3.312 24.563l-.77 3.296C802.3 804.081 788.203 837.671 772 870l-1.457 2.922c-6.934 13.829-14.772 27.06-22.826 40.261a1901 1901 0 0 0-7.092 11.755l-1.1 1.825c-1.236 2.055-2.452 4.091-3.525 6.237 20.18-2.725 38.371-7.52 56.113-17.805 3.682-1.524 5.109-1.483 8.887-.195 2.982 1.857 5.699 3.991 8.438 6.188l2.197 1.712c4.563 3.58 8.987 7.298 13.365 11.1-1 3-1 3-3.895 4.613q-1.948.872-3.918 1.7l-2.168.919C774.26 958.02 725.473 961.048 682 955c1.598-4.842 4.35-8.546 7.313-12.625q1.635-2.288 3.269-4.578l1.71-2.393c36.33-51.127 76.316-114.113 82.457-177.997.69-5.894.69-5.894 3.294-8.278 3.9-1.489 7.797-2.909 11.77-4.192l2.33-.775C808.378 739.49 808.378 739.49 814 740"/>
<path fill="#ffffffff" d="M200 226c2.456 2.365 4.583 4.632 6.41 7.512l1.296 2.02 1.357 2.155c2.944 4.667 5.894 9.298 9.101 13.79l1.535 2.204q1.44 2.065 2.948 4.081c2.725 3.974 3.608 6.898 3.516 11.736l-.056 3.223a703 703 0 0 1-.693 15.603l-.38 7.38-.202 3.932c-1.064 20.745-1.923 41.483-2.406 62.25l-.065 2.778c-.211 9.09-.407 18.181-.576 27.273a4497 4497 0 0 1-.21 10.207c-.046 2.336-.083 4.672-.12 7.008-.369 19.255-.369 19.255-3.821 23.546-1.56 1.45-3.176 2.617-4.946 3.802l-1.9 1.38a296 296 0 0 1-3.9 2.785c-2.818 1.993-5.534 4.099-8.263 6.21l-1.58 1.21c-5.866 4.504-11.583 9.19-17.307 13.872a548 548 0 0 1-9.238 7.356c-10.234 8.1-10.234 8.1-15.062 19.812-1.513 5.299-5.365 9.161-8.955 13.202a350 350 0 0 0-3.162 3.62 515 515 0 0 1-5.446 6.178l-1.737 2.012c-2.993 3.278-4.544 4.707-8.95 5.867C124 520 124 520 122.125 518.812c-3.842-6.19-2.506-15.29-2.585-22.337q-.04-2.715-.123-5.429c-.515-16.981-.515-16.981 3.786-21.972 1.93-1.679 1.93-1.679 3.797-3.074l2.703-2.652a413 413 0 0 1 16.426-14.008c3.1-2.527 6.143-5.116 9.184-7.715a403 403 0 0 1 14-11.375c8.954-6.168 8.954-6.168 15.687-14.25.108-1.483.156-2.97.174-4.458l.04-2.828.032-3.097.095-6.603c.015-1.164.03-2.327.047-3.526.634-45.925 2.82-91.772 9.174-137.3l.303-2.172c1.42-10.064 3.193-20.041 5.135-30.016M484 548h2q3.151 5.443 6.299 10.889l2.141 3.7 3.083 5.333 1.873 3.237L501 574l1.28 2.005c1.39 3.85.07 7.18-1.488 10.806l-1.53 2.908-1.716 3.287-1.858 3.494q-.964 1.833-1.925 3.668a998 998 0 0 1-10.123 18.756C443.168 692.106 405.787 782.604 426 875c6.616 22.396 16.806 41.968 31.055 60.379 1.828 2.463 3.417 4.964 4.945 7.621-4.056-1.66-7.024-4.494-10.187-7.437l-1.748-1.626c-5.207-4.931-9.752-10.204-14.065-15.937l-2.422-3.168C414.531 889.402 403.048 859.227 398 828l-.36-2.213c-3.333-21.808-3.277-46.028.36-67.787l.392-2.42c9.725-57.085 37.406-113.905 63.297-164.987 1.476-2.92 2.93-5.85 4.382-8.782 3.7-7.462 7.523-14.86 11.366-22.249l1.616-3.111 1.506-2.885 1.353-2.595C483 549 483 549 484 548M268 852c2.953 1.311 4.828 2.634 6.918 5.09l1.597 1.859 1.673 1.989 1.76 2.059a462 462 0 0 1 9.365 11.378c6.456 7.94 13.576 15.275 20.687 22.625l2.554 2.64C322.855 910.242 333.119 920.198 345 929a77 77 0 0 1 6 5v3c-50.212 21.196-108.98 9.748-158-10-17.19-7.125-33.39-15.711-49.312-25.312l-3.023-1.816-2.84-1.735-2.53-1.54c-2.449-1.704-4.432-3.258-6.295-5.597.276-4.204 3.034-7.725 5.188-11.25l1.22-2.018A135 135 0 0 1 145 864c4.86.462 7.803 2.883 11.5 5.813C191.225 896.148 237.983 916.017 282 915q-1.468-1.688-2.937-3.375l-1.958-2.246a242 242 0 0 0-4.117-4.54c-4.965-5.35-9.524-10.94-13.988-16.714l-1.747-2.236-1.628-2.131-1.46-1.902c-1.264-2.015-1.882-3.495-2.165-5.856a62 62 0 0 1 4-6.625l1.24-1.86A483 483 0 0 1 261 862l2.16-3.14A603 603 0 0 1 268 852M895.797 455.012c3.286 1.474 5.97 3.164 8.203 5.988.883 3.131.842 6.157.797 9.395l.017 2.746q.006 2.87-.032 5.741c-.032 2.912 0 5.818.038 8.73q-.005 2.798-.023 5.595l.037 2.611c-.18 7.804-3.694 11.777-8.81 17.324l-1.723 1.604-1.957 1.833-2.032 1.859-2.142 1.983a269 269 0 0 1-14.338 12.282c-3.47 2.815-6.839 5.736-10.207 8.672-8.622 7.506-17.29 14.946-26.187 22.125a319 319 0 0 0-12 10.313l-1.555 1.382c-3.206 2.93-5.566 5.39-6.145 9.796l-.016 2.135-.034 2.464-.007 2.677-.03 2.839c-.031 3.095-.048 6.19-.065 9.285q-.028 3.22-.059 6.44c-.051 5.648-.09 11.297-.128 16.946-.04 5.764-.091 11.529-.141 17.293q-.144 16.965-.258 33.93c-4.289 1.816-8.33 2.612-12.937 3.125l-2.034.262c-4.79.556-9.514.652-14.336.636l-3.803-.01L781 683c-.21-14.056-.369-28.112-.466-42.17-.047-6.527-.11-13.054-.213-19.581-.098-6.303-.152-12.604-.175-18.907a539 539 0 0 0-.098-7.204c-.366-18.808-.366-18.808 2.877-24.542 2.249-2.285 4.362-3.912 7.075-5.596 1.33-1.146 2.646-2.31 3.938-3.5l1.976-1.695c2.336-2.022 4.616-4.099 6.899-6.18 3.44-3.11 6.95-6.09 10.562-9 4.55-3.678 8.855-7.545 13.133-11.53 3.333-3.085 6.763-5.997 10.304-8.845 3.74-3.011 7.184-6.118 10.512-9.574 1.813-1.813 3.72-3.457 5.676-5.114l2-1.8c2-1.762 2-1.762 4.063-3.242 3.07-2.607 4.758-4.727 5.169-8.849.085-3.738.015-7.438-.226-11.17-.382-6.853-.382-6.853 1.662-10.376 3.367-3.068 6.822-5.935 10.394-8.762 1.902-1.53 3.76-3.113 5.563-4.758 4.71-4.201 7.743-6.612 14.172-5.593M215 461c3.338 2.15 4.735 3.204 6 7 .147 1.452.247 2.91.316 4.367l.129 2.654c.163 3.967.319 7.933.451 11.9q.102 3.036.228 6.072c.11 2.836.186 5.67.251 8.507l.115 2.62c.055 4.127-.077 6.935-2.717 10.224-2.446 2.343-4.866 4.558-7.523 6.656l-2.902 2.32-1.605 1.279c-2.649 2.13-5.26 4.302-7.877 6.47a914 914 0 0 1-21.69 17.443c-3.817 2.974-7.555 6.043-11.285 9.125C165 559 165 559 163 559c-1.302 5.933-1.11 11.81-1.066 17.849l.063 13.329c.018 3.397.027 6.794.037 10.19.033 11.563.075 23.125.137 34.687q.053 9.59.07 19.179.009 5.072.046 10.144c.026 3.764.034 7.527.038 11.29l.037 3.408-.008 3.092.012 2.697L162 687c-3.336 2.224-5.308 2.521-9.242 3.07l-3.73.528-3.903.527-3.879.55c-11.092 1.542-11.092 1.542-15.246 1.325-1-1-1-1-1.114-2.974l.016-2.63.01-2.98.025-3.269.028-6.922.019-3.63c.02-4.514.018-9.03.015-13.544-.009-12.242.026-24.483.081-36.724.03-6.68.048-13.36.04-20.039-.008-6.532.016-13.064.059-19.596q.016-3.71.001-7.418c-.012-3.44.013-6.88.047-10.32l-.037-3.063c.105-5.933 1.002-9.216 5.216-13.484a125 125 0 0 1 8.094-6.595c4.975-3.807 9.824-7.714 14.563-11.812l1.749-1.512q1.737-1.502 3.472-3.006c2.787-2.407 5.594-4.79 8.404-7.17.53-.45 1.059-.902 1.604-1.367 2.59-2.199 5.204-4.348 7.895-6.422l3-2.336 2.668-2.019c4.451-4.5 4.301-9.501 4.333-15.543.356-6.288 1.2-9.604 5.785-13.926L194 473l1.996-1.855c1.952-1.785 3.953-3.475 6.004-5.145l1.852-1.547c3.78-2.964 6.351-4.392 11.148-3.453M929 852c3.093 1.321 4.62 2.454 6.348 5.332l1.305 2.126 1.41 2.355q1.588 2.582 3.183 5.16l1.785 2.887c3.776 6.02 7.69 11.951 11.594 17.89l1.257 1.914c7.787 11.858 15.6 23.694 23.618 35.399l1.37 2.006a274 274 0 0 0 7.083 9.876l1.424 1.91q1.337 1.786 2.715 3.542c2.018 2.705 2.951 4.066 2.674 7.498L994 952c-64.659 14.58-137.41-19.532-190.937-53.125-6.887-4.369-13.58-8.922-20.063-13.875.505-5.049 2.959-8.426 5.75-12.5l1.305-1.973c2.663-3.947 5.467-7.274 8.945-10.527 5.962 2.929 10.905 6.422 16 10.625 29.42 24.112 80.21 54.386 119.25 53.844 2.163-.373 2.163-.373 3.75-3.469-5.115-8.148-10.41-16.163-15.766-24.154a1559 1559 0 0 1-3.547-5.33c-.7-1.057-1.402-2.114-2.125-3.203l-1.87-2.825c-1.623-2.485-1.623-2.485-3.477-4.57C910 879 910 879 910.027 877.133c1.409-3.088 3.43-5.623 5.535-8.258l1.348-1.718A932 932 0 0 1 921 862l2.441-3.074Q926.21 855.453 929 852"/>
<path fill="#ffffffff" d="M886.625 545.875c9.52 3.173 9.52 3.173 12.375 7.125.276 2.577.369 4.908.325 7.482l-.004 2.32c-.007 2.555-.035 5.11-.063 7.667q-.013 2.712-.022 5.425-.021 5.787-.067 11.575c-.07 9.073-.09 18.146-.114 27.22q-.013 4.553-.028 9.104c-.133 43.785.066 87.565 5.652 131.049 1.86 14.525 1.348 21.757-7.679 33.834a287 287 0 0 1-4.008 4.922c-2.633 3.174-5.085 6.476-7.547 9.785L884 805h-2c-10.029-25.935-12.68-53.276-14.687-80.812l-.185-2.51c-1.483-20.564-2.224-41.135-2.39-61.75-.057-6.345-.153-12.69-.24-19.035-.073-5.53-.134-11.061-.17-16.592-.036-5.423-.106-10.845-.198-16.267a507 507 0 0 1-.05-6.143c.52-12.341.52-12.341-4.585-23.012Q857.749 577.438 856 576l-1-3 2.043-2.04q3.231-3.233 6.445-6.483c3.239-3.27 6.5-6.515 9.772-9.75 1.43-1.42 2.843-2.856 4.252-4.297 4.53-4.397 4.53-4.397 9.113-4.555M572 609c2.27 2.27 2.895 3.946 4.031 6.934l1.192 3.112 1.277 3.391 1.338 3.529q1.393 3.682 2.779 7.367c1.302 3.453 2.624 6.899 3.95 10.343 28.862 75.601 39.237 163.179 5.464 239.168C587.166 893.39 582.127 903.777 575 913l-2.207 2.867C565.145 925.482 557.11 933.012 547 940l-2-1 1.652-2.684c16.204-26.513 26.895-53.622 33.098-84.129l.602-2.96c3.168-16.319 4.02-32.078 3.96-48.664l-.005-3.228c-.045-15.673-.6-30.87-3.307-46.335l-.96-6.078c-4.784-28.899-12.811-57.332-20.904-85.451l-.616-2.164q-.819-2.866-1.647-5.729c-2.739-11.226-2.739-11.226.479-17.11l1.582-2.956 1.691-3.012 1.621-3.012A265 265 0 0 1 572 609M237 687c18.916 4.035 38.606 8.379 50.938 24.75 10.511 16.536 11.851 34.6 8.035 53.34C286.146 808.83 252.78 855.26 222 887c-3.782 1.891-8.13 1.622-12.072.31-2.088-.944-4.1-1.972-6.115-3.06l-2.077-1.055c-3.892-2.023-7.64-4.044-10.736-7.195-.338-2.802-.315-4.44 1.079-6.918l1.526-1.84 1.713-2.117 1.87-2.25c5.753-7.142 11.093-14.446 16.196-22.065a302 302 0 0 1 8.499-12.052c4.447-6.082 8.308-12.45 12.117-18.946l1.055-1.792c7.08-12.041 13.418-24.142 18.82-37.02l.87-2.069c4.079-10.037 6.732-21.783 3.485-32.462-2.795-4.979-7.244-7.998-11.925-11.121-5.459-5.56-6.129-14.632-7.493-22.035l-.537-2.76c-.86-4.58-1.5-8.87-1.275-13.553"/>
<path fill="#ffffffff" d="M913 688c17.839 1.534 32.887 6.169 44.922 20.16 8.959 12.243 11.909 26.963 9.79 41.87C965.786 761.05 961.912 771 957 781l-.972 2.013c-11.877 24.37-28.771 46.374-45.946 67.225-2.917 3.544-5.76 7.142-8.582 10.762-4.118 5.27-8.29 10.492-12.5 15.688l-1.674 2.072-1.576 1.94-1.39 1.713c-3.84 4.483-3.84 4.483-6.524 5.02-11.122.018-20.34-5.339-28.399-12.808L848 873c2.762-6.076 7.633-10.714 12.375-15.312 3.734-3.676 6.981-7.686 10.262-11.766 2.286-2.826 4.631-5.592 6.988-8.36C884.782 828.99 891.372 819.984 898 811l1.47-1.979c24.841-33.41 24.841-33.41 31.53-73.021-1.334-4.427-4.211-7.256-7.5-10.375-8.25-8.02-10.011-20.559-10.684-31.656-.003-1.99.078-3.981.184-5.969M218 539c1.94 5.706 2.294 10.772 2.287 16.774l.02 2.901q.02 3.111.029 6.223.014 4.973.052 9.944c.048 7.074.081 14.147.112 21.22.005 41.518.005 41.518 2.5 82.938l.235 2.53c.44 4.585.975 9.152 1.577 13.72l.255 1.97c3.072 23.674 7.363 48.07 14.933 70.78.543 6.01-.857 9.672-3.625 14.813l-1.103 2.116C226.984 800.684 226.984 800.684 221 807h-2c-19.694-46.13-24.31-98.982-28.764-148.416q-.311-3.391-.643-6.781c-1.746-18.262-1.926-36.621-2.107-54.955a862 862 0 0 0-.13-8.523c-.078-4.024-.097-8.046-.11-12.071l-.09-3.686c.03-5.831.269-9.655 4.153-14.182A83 83 0 0 1 195 555l2.011-1.825a161 161 0 0 1 3.81-3.3 124 124 0 0 0 4.734-4.312l2.632-2.5 2.418-2.34c2.746-1.975 4.09-2.105 7.395-1.723M491 646h2c9.962 20.948 19.809 41.94 29.331 63.092q2.631 5.839 5.31 11.655C538.307 743.908 547.598 766.779 552 792l.394 2.148c3.727 21.13 3.169 44.923-1.394 65.852l-.504 2.354C545.63 884.329 536.862 907.79 522 925l-1.238 1.738C514.828 934.73 504.045 941.116 495 945l-2-1 1.941-1.617c21.19-18.253 29.946-47.878 32.289-75.05 3.336-45.833-5.483-86.005-25.579-126.915-3.21-6.54-6.328-13.124-9.442-19.711a539 539 0 0 0-8.002-16.074l-1.957-3.81a631 631 0 0 0-3.832-7.335c-5.536-10.773-5.536-10.773-4.418-17.488.9-2.695 2.088-5.128 3.438-7.625l1.072-2.059c2.597-4.888 5.409-9.637 8.365-14.316l1.154-1.834c.933-1.428 1.945-2.804 2.971-4.166M852 694c1.375 7.427 2.921 17.225-1 24-4.828 2.986-9.196 3.666-14.71 4.21l-5.178.577-2.717.29c-38.978 3.136-38.978 3.136-73.864 18.821C753 743 753 743 751 743c-5.753 11.064-6.904 21.338-3.407 33.377 1.822 5.715 3.892 11.273 6.805 16.533 1.861 6.465-1.852 13.374-4.273 19.278l-1.066 2.693c-1.672 4.136-3.254 7.613-6.059 11.119-17.174-23.292-30.06-52.445-28-82 2.383-13.754 9.083-24.89 20.133-33.418C760.25 692.982 823.948 679.974 852 694M169.688 699.938q2.237.008 4.474.013 5.419.017 10.838.049c2.142 4.285 1.842 9.722 2.25 14.438l.352 3.51.289 3.36.282 3.088C188 727 188 727 186.757 728.611c-2.103 1.663-3.387 1.91-6.035 2.217l-2.614.324-2.83.313-2.952.362c-3.128.382-6.258.748-9.388 1.11-32.162 2.62-32.162 2.62-59.938 17.063h-2c-6.58 12.655-7.346 22.585-3.423 36.115C102.038 802.035 94.587 818.17 87 832l-2 1c-26.13-52.173-26.13-52.173-19.2-79.46 6.268-18.496 17.515-33.095 34.95-42.29 13.06-6.345 26.973-8.536 41.25-10.25l2.474-.301c8.396-.896 16.784-.811 25.214-.761M968 31c-.559 3.617-1.755 4.998-4.562 7.281-2.887 2.413-5.703 4.854-8.438 7.438l-2 1.886-2 1.895c-4.646 4.4-9.336 8.718-14.19 12.89-1.844 1.64-3.582 3.35-5.31 5.11a105 105 0 0 1-7.062 6.563c-8.445 7.29-16.401 15.366-23.602 23.882-2.956 3.309-6.135 6.397-9.311 9.493a119 119 0 0 0-7.47 8.011c-3.481 4.025-7.208 7.765-10.985 11.508l-1.934 1.918q-4.006 3.965-8.024 7.917c-10.92 10.75-20.681 21.692-29.29 34.413-1.342 1.9-1.342 1.9-3.822 4.795h-4q-2.485-6.374-4.962-12.75-.84-2.165-1.685-4.326l-.824-2.113-.815-2.088a550 550 0 0 1-2.306-6.117c-1.289-3.494-1.289-3.494-2.78-6.231-1.155-2.35-1.746-3.756-1.628-6.375 2.317-4.273 5.607-7.572 9-11q1.555-1.627 3.108-3.259a511 511 0 0 1 8.502-8.612 1117 1117 0 0 0 5.265-5.277c6.02-6.026 12.114-11.713 18.807-16.993 2.201-1.765 4.264-3.614 6.318-5.546C875.346 73.389 890.483 63.807 906 55l2.097-1.213C924.937 44.098 948.123 31 968 31"/>
<path fill="#ffffffff" d="M468 696h2q2.55 6.21 5.072 12.433.858 2.112 1.726 4.222a308956418785219.7 308956418785219.7 0 0 1 3.987 9.797c2.661 7.772 2.06 12.375-.793 19.821l-.977 2.673a1090 1090 0 0 1-3.14 8.429q-2.046 5.508-4.07 11.023l-1.001 2.726c-4.204 11.57-7.85 23.298-9.991 35.438l-.486 2.702q-.47 2.664-.92 5.332a448 448 0 0 1-1.098 6.17c-5.262 33.411-1.252 70.726 14.566 100.859L474 920l-1 2c-18.523-22.404-31.872-49.584-34-79l-.199-2.704C435.441 790.466 446.862 741.03 468 696"/>
</svg>